<svg xmlns="http://www.w3.org/2000/svg" viewBox="0 0 64 64" width="64" height="64" fill="none" role="img" aria-label="art">
  <defs>
    <filter id="glow-art" x="-60%" y="-60%" width="220%" height="220%" color-interpolation-filters="sRGB">
      <feGaussianBlur stdDeviation="1.1" result="b1"></feGaussianBlur>
      <feGaussianBlur stdDeviation="0.4" result="b2"></feGaussianBlur>
      <feMerge>
        <feMergeNode in="b1"></feMergeNode>
        <feMergeNode in="b1"></feMergeNode>
        <feMergeNode in="b2"></feMergeNode>
        <feMergeNode in="SourceGraphic"></feMergeNode>
      </feMerge>
    </filter>
  </defs>
  <g filter="url(#glow-art)" stroke="#2DE8D8" stroke-width="1.3" stroke-linecap="round" stroke-linejoin="round" fill="none">
    <path d="M39 51.5c-17 1.5-31-7-31-19.5C8 20.5 18.5 12 32 12s24 7 24 16.5c0 7.5-7.5 9.5-12.5 9.5-3.5 0-5.5 1.8-5.5 4 0 3 3.5 4.2 1 9.5Z"></path>
    <circle cx="20.5" cy="40" r="3.8"></circle>
    <circle cx="21.5" cy="26.5" r="2.1"></circle>
    <circle cx="31.5" cy="21.5" r="2.1"></circle>
    <circle cx="41.5" cy="25" r="2.1"></circle>
    <path d="M58 5.5 47.5 17"></path>
    <path d="m47.5 17-4 4.5 5 1 3.5-4"></path>
    <path d="M55 8.5 50.5 13" stroke-width="0.8"></path>
    <path d="M18.5 40a2 2 0 0 1 4 0" stroke-width="0.8"></path>

  </g>
  <g stroke="#2DE8D8" stroke-width="0.8" stroke-linecap="round" stroke-linejoin="round" fill="none" opacity="0.9">

  </g>
</svg>