<svg xmlns="http://www.w3.org/2000/svg" viewBox="0 0 64 64" width="64" height="64" fill="none" role="img" aria-label="goods">
  <defs>
    <filter id="glow-goods" x="-60%" y="-60%" width="220%" height="220%" color-interpolation-filters="sRGB">
      <feGaussianBlur stdDeviation="1.1" result="b1"></feGaussianBlur>
      <feGaussianBlur stdDeviation="0.4" result="b2"></feGaussianBlur>
      <feMerge>
        <feMergeNode in="b1"></feMergeNode>
        <feMergeNode in="b1"></feMergeNode>
        <feMergeNode in="b2"></feMergeNode>
        <feMergeNode in="SourceGraphic"></feMergeNode>
      </feMerge>
    </filter>
  </defs>
  <g filter="url(#glow-goods)" stroke="#2DE8D8" stroke-width="1.3" stroke-linecap="round" stroke-linejoin="round" fill="none">
    <path d="M12 32 44 32 40 50 16 50Z"></path>
    <path d="M14 32c2-9 26-9 28 0"></path>
    <path d="M16 37h24M15 43h26" stroke-width="0.8"></path>
    <path d="M20 32v18M28 32v18M36 32v18" stroke-width="0.8"></path>

    <circle cx="20" cy="27" r="4.5"></circle>
    <circle cx="28" cy="24" r="5"></circle>
    <circle cx="36" cy="27" r="4.5"></circle>
    <path d="M20 22.5c1-1.5 2.5-2 4-1.8" stroke-width="0.8"></path>
    <path d="M28 18.5c1.2-1.8 3-2.4 5-2" stroke-width="0.8"></path>
    <path d="M36 22.5c1-1.5 2.5-2 4-1.8" stroke-width="0.8"></path>
  </g>
</svg>